<svg width="20" height="18" viewBox="0 0 20 18" fill="none" xmlns="http://www.w3.org/2000/svg">
  <path d="M10 11.25C8.205 11.25 6.75 9.795 6.75 8C6.75 6.205 8.205 4.75 10 4.75C11.795 4.75 13.25 6.205 13.25 8C13.25 9.795 11.795 11.25 10 11.25ZM17.71 6.4L16.44 5.305C16.32 5.2 16.25 5.045 16.25 4.88V3.35C16.25 2.81 15.815 2.375 15.275 2.375H13.745C13.58 2.375 13.425 2.31 13.32 2.185L12.225 0.915C11.875 0.53 11.285 0.53 10.935 0.915L9.87 2.01C9.765 2.13 9.61 2.2 9.445 2.2H3.75C3.06 2.2 2.5 2.76 2.5 3.45V14.55C2.5 15.24 3.06 15.8 3.75 15.8H16.25C16.94 15.8 17.5 15.24 17.5 14.55V14.25H15.275C14.735 14.25 14.3 13.815 14.3 13.275V11.745C14.3 11.58 14.235 11.425 14.11 11.32L13.025 10.265C12.64 9.915 12.64 9.325 13.025 8.975L14.11 7.92C14.23 7.815 14.3 7.66 14.3 7.495V5.965C14.3 5.425 14.735 4.99 15.275 4.99H17.5C17.5 5.32 17.65 5.62 17.9 5.82L19.1 6.82C19.52 7.16 19.52 7.81 19.1 8.15L17.89 9.165C17.65 9.365 17.5 9.67 17.5 9.995V13.275C17.5 13.815 17.065 14.25 16.525 14.25C15.985 14.25 15.55 13.815 15.55 13.275V11.745C15.55 11.58 15.485 11.425 15.36 11.32L14.275 10.265C13.89 9.915 13.89 9.325 14.275 8.975L15.36 7.92C15.48 7.815 15.55 7.66 15.55 7.495V5.965C15.55 5.85 15.44 5.75 15.325 5.75H10.32C9.975 6.2 9.455 6.5 8.875 6.5C7.9 6.5 7.125 5.725 7.125 4.75C7.125 3.775 7.9 3 8.875 3C9.455 3 9.975 3.3 10.32 3.75H15.325C16.405 3.75 17.275 4.625 17.275 5.7V7.21L17.71 7.6C18.13 7.94 18.13 8.59 17.71 8.93L17.28 9.3V13.275C17.28 13.735 17.635 14.175 18.175 14.175H18.75V3.45C18.75 3.29 18.685 3.135 18.57 3.03L17.71 2.29C17.33 1.945 17.33 1.365 17.71 1.02L18.57 0.28C18.83 0.05 19.25 0.23 19.25 0.575V5.15C19.25 5.425 19.105 5.68 18.87 5.845L17.71 6.4Z" fill="#EEEEEE"/>
</svg>