<svg width="21" height="18" viewBox="0 0 21 18" fill="none" xmlns="http://www.w3.org/2000/svg">
<path d="M6.52925 16.6403C6.52925 17.1533 6.10951 17.5731 5.59648 17.5731H1.74105C1.22803 17.5731 0.808289 17.1533 0.808289 16.6403V12.4118C0.808289 11.8987 1.22803 11.479 1.74105 11.479H5.59648C6.10951 11.479 6.52925 11.8987 6.52925 12.4118V16.6403Z" fill="#EEEEEE"/>
<path d="M13.3851 16.6403C13.3851 17.1533 12.9653 17.5731 12.4523 17.5731H8.59689C8.08387 17.5731 7.66412 17.1533 7.66412 16.6403V10.1731C7.66412 9.6601 8.08387 9.24036 8.59689 9.24036H12.4523C12.9653 9.24036 13.3851 9.6601 13.3851 10.1731V16.6403Z" fill="#EEEEEE"/>
<path d="M20.2409 16.6402C20.2409 17.1533 19.8212 17.573 19.3082 17.573H15.4527C14.9397 17.573 14.52 17.1533 14.52 16.6402V7.6857C14.52 7.17267 14.9397 6.75293 15.4527 6.75293H19.3082C19.8212 6.75293 20.2409 7.17267 20.2409 7.6857V16.6402Z" fill="#EEEEEE"/>
<path d="M19.434 0.0173998L15.2443 1.03673C14.9119 1.11719 14.8378 1.38092 15.0797 1.62275L15.9737 2.49588C16.0488 2.58145 15.9597 2.69525 15.8891 2.74344C15.3261 3.12774 14.4327 3.69163 13.1978 4.33592C6.47473 7.84355 0.932672 7.62839 0.849345 7.6246C0.404478 7.60203 0.0240963 7.94473 0.00108805 8.39034C-0.021858 8.8362 0.320902 9.21633 0.766764 9.23928C0.799535 9.24096 0.932797 9.24699 1.15685 9.24699C2.59374 9.24699 7.75529 8.99906 13.9457 5.76939C15.4104 5.00521 16.4257 4.34612 17.0185 3.92886C17.1023 3.86985 17.2484 3.76811 17.3832 3.90535L18.361 4.88314C18.6029 5.12498 18.8653 5.05054 18.9444 4.71779L19.8949 0.476134C19.9738 0.143323 19.7664 -0.0630668 19.434 0.0173998Z" fill="#EEEEEE"/>
</svg>
