<svg width="20" height="20" viewBox="0 0 20 20" fill="none" xmlns="http://www.w3.org/2000/svg">
<path d="M17.5944 11C17.6454 10.7002 17.6454 10.3501 17.6454 10C17.6454 9.6499 17.5944 9.35009 17.5944 9L19.7419 7.35008C19.9467 7.20018 19.9976 6.95023 19.8443 6.70018L17.7987 3.24997C17.6963 3.04977 17.3897 2.95021 17.1849 3.04977L14.6279 4.04983C14.1165 3.64992 13.5032 3.29978 12.8895 3.04977L12.5314 0.399906C12.4804 0.200193 12.2757 0 12.0199 0H7.92875C7.67308 0 7.46833 0.200193 7.41736 0.399906L7.00833 3.04977C6.39454 3.29978 5.83219 3.64987 5.26937 4.04983L2.71238 3.04977C2.45667 2.95021 2.20095 3.04977 2.09859 3.24997L0.0529968 6.70023C-0.0488768 6.89989 0.00198798 7.20018 0.155351 7.35013L2.35441 9C2.35441 9.35009 2.30345 9.6499 2.30345 10C2.30345 10.3501 2.35441 10.6499 2.35441 11L0.206937 12.6499C0.0021321 12.7998 -0.0487324 13.0498 0.104535 13.2998L2.15013 16.75C2.25253 16.9502 2.55916 17.0498 2.76392 16.9502L5.32095 15.9502C5.83234 16.3501 6.44565 16.7002 7.05939 16.9502L7.46842 19.6001C7.51981 19.8501 7.72409 20 7.97981 20H12.071C12.3267 20 12.5315 19.7998 12.5824 19.6001L12.992 16.9502C13.6053 16.7002 14.1681 16.3501 14.7304 15.9502L17.2874 16.9502C17.5431 17.0498 17.7988 16.9502 17.9012 16.75L19.9468 13.2998C20.0492 13.1001 19.9978 12.7998 19.8444 12.6499L17.5944 11ZM9.9744 13.5C7.97976 13.5 6.39464 11.9502 6.39464 10C6.39464 8.04975 7.97976 6.49998 9.9744 6.49998C11.969 6.49998 13.5542 8.04975 13.5542 10C13.5542 11.9502 11.969 13.5 9.9744 13.5Z" fill="#A1A1AA"/>
</svg>
